<svg height="814" width="720" xmlns="http://www.w3.org/2000/svg">
<rect height="814" fill="#555" width="720"></rect>
<text fill="#7f7" font-family="Courier New" font-size="12" xml:space="preserve">
<tspan x="10" y="26">4 megabytes installed</tspan>
<tspan x="10" y="42"></tspan>
<tspan x="10" y="58">node_modules</tspan>
<tspan x="10" y="74">└─┬ socket.io@1.7.3 </tspan>
<tspan x="10" y="90">  ├─┬ debug@2.3.3 </tspan>
<tspan x="10" y="106">  │ └── ms@0.7.2 </tspan>
<tspan x="10" y="122">  ├─┬ engine.io@1.8.3 </tspan>
<tspan x="10" y="138">  │ ├─┬ accepts@1.3.3 </tspan>
<tspan x="10" y="154">  │ │ ├─┬ mime-types@2.1.15 </tspan>
<tspan x="10" y="170">  │ │ │ └── mime-db@1.27.0 </tspan>
<tspan x="10" y="186">  │ │ └── negotiator@0.6.1 </tspan>
<tspan x="10" y="202">  │ ├── base64id@1.0.0 </tspan>
<tspan x="10" y="218">  │ ├── cookie@0.3.1 </tspan>
<tspan x="10" y="234">  │ ├─┬ engine.io-parser@1.3.2 </tspan>
<tspan x="10" y="250">  │ │ ├── after@0.8.2 </tspan>
<tspan x="10" y="266">  │ │ ├── arraybuffer.slice@0.0.6 </tspan>
<tspan x="10" y="282">  │ │ ├── base64-arraybuffer@0.1.5 </tspan>
<tspan x="10" y="298">  │ │ ├── blob@0.0.4 </tspan>
<tspan x="10" y="314">  │ │ └── wtf-8@1.0.0 </tspan>
<tspan x="10" y="330">  │ └─┬ ws@1.1.2 </tspan>
<tspan x="10" y="346">  │   ├── options@0.0.6 </tspan>
<tspan x="10" y="362">  │   └── ultron@1.0.2 </tspan>
<tspan x="10" y="378">  ├─┬ has-binary@0.1.7 </tspan>
<tspan x="10" y="394">  │ └── isarray@0.0.1 </tspan>
<tspan x="10" y="410">  ├── object-assign@4.1.0 </tspan>
<tspan x="10" y="426">  ├── socket.io-adapter@0.5.0 </tspan>
<tspan x="10" y="442">  ├─┬ socket.io-client@1.7.3 </tspan>
<tspan x="10" y="458">  │ ├── backo2@1.0.2 </tspan>
<tspan x="10" y="474">  │ ├── component-bind@1.0.0 </tspan>
<tspan x="10" y="490">  │ ├── component-emitter@1.2.1 </tspan>
<tspan x="10" y="506">  │ ├─┬ engine.io-client@1.8.3 </tspan>
<tspan x="10" y="522">  │ │ ├── component-emitter@1.2.1 </tspan>
<tspan x="10" y="538">  │ │ ├── component-inherit@0.0.3 </tspan>
<tspan x="10" y="554">  │ │ ├── has-cors@1.1.0 </tspan>
<tspan x="10" y="570">  │ │ ├── parsejson@0.0.3 </tspan>
<tspan x="10" y="586">  │ │ ├── parseqs@0.0.5 </tspan>
<tspan x="10" y="602">  │ │ ├── xmlhttprequest-ssl@1.5.3 </tspan>
<tspan x="10" y="618">  │ │ └── yeast@0.1.2 </tspan>
<tspan x="10" y="634">  │ ├── indexof@0.0.1 </tspan>
<tspan x="10" y="650">  │ ├── object-component@0.0.3 </tspan>
<tspan x="10" y="666">  │ ├─┬ parseuri@0.0.5 </tspan>
<tspan x="10" y="682">  │ │ └─┬ better-assert@1.0.2 </tspan>
<tspan x="10" y="698">  │ │   └── callsite@1.0.0 </tspan>
<tspan x="10" y="714">  │ └── to-array@0.1.4 </tspan>
<tspan x="10" y="730">  └─┬ socket.io-parser@2.3.1 </tspan>
<tspan x="10" y="746">    ├── component-emitter@1.1.2 </tspan>
<tspan x="10" y="762">    ├─┬ debug@2.2.0 </tspan>
<tspan x="10" y="778">    │ └── ms@0.7.1 </tspan>
<tspan x="10" y="794">    └── json3@3.3.2</tspan>
</text>
</svg>
